<svg xmlns="http://www.w3.org/2000/svg" viewBox="0 0 305 24" aria-hidden="true"><defs><pattern id="metal-what-we-do" patternUnits="userSpaceOnUse" width="305" height="24"><image href="/assets/reference.png" x="-80" y="-754" width="1672" height="941"/></pattern></defs><path fill="url(#metal-what-we-do)" fill-rule="evenodd" d="M194.25,12.00L194.25,13.00L195.50,14.00L214.75,14.00L216.25,12.75L216.25,11.75L215.50,11.00L214.75,10.75L205.50,10.75L205.25,11.00L197.00,11.00L196.25,10.75L194.75,11.25ZM272.00,10.75L272.00,13.75L273.50,17.00L275.50,18.75L277.00,19.50L278.25,19.50L278.50,19.75L279.00,19.50L293.75,19.50L294.00,19.75L295.25,19.75L298.00,18.50L299.75,17.00L300.75,15.50L301.25,13.50L301.00,10.00L299.75,7.75L297.75,6.00L295.25,5.00L278.50,5.00L277.25,5.25L274.75,6.50L273.00,8.25ZM274.75,11.75L275.75,10.00L277.50,8.50L278.25,8.25L295.00,8.25L296.25,8.75L297.75,10.25L298.25,11.50L298.25,13.00L297.75,14.25L296.25,15.75L294.50,16.50L278.00,16.50L276.50,15.50L275.50,14.25ZM239.75,7.50L239.75,18.25L240.25,19.25L241.25,19.75L242.00,19.50L243.00,18.00L243.00,11.25L242.75,10.25L243.00,9.50L244.50,8.25L262.50,8.25L263.25,8.50L265.00,10.25L265.50,11.25L265.50,13.25L264.00,15.50L262.00,16.50L246.25,16.50L245.50,17.00L245.25,18.25L246.00,19.25L247.50,19.75L248.25,19.50L263.50,19.50L266.25,17.75L267.25,16.50L268.50,13.50L268.50,10.75L267.50,8.25L266.00,6.50L263.50,5.25L262.25,5.25L262.00,5.00L260.00,5.00L259.75,5.25L242.50,5.00L241.50,5.50ZM188.25,9.75L188.00,10.75L188.25,14.50L189.00,16.50L191.00,18.50L193.50,19.75L194.75,19.75L195.00,19.50L216.00,19.50L217.00,18.75L217.25,18.00L217.00,17.25L216.00,16.50L194.00,16.50L192.00,15.00L191.00,13.25L191.25,11.25L192.00,10.00L193.50,8.50L196.25,8.50L196.50,8.25L216.00,8.25L217.00,7.50L217.25,6.50L217.00,5.75L215.75,5.00L214.00,5.00L213.75,5.25L211.50,5.25L211.25,5.00L193.75,5.00L192.75,5.25L190.25,6.75ZM103.00,6.00L103.00,7.25L104.25,8.25L113.25,8.25L114.00,8.75L114.25,9.25L114.25,16.75L114.00,17.50L114.50,18.75L115.25,19.50L116.00,19.75L117.50,18.25L117.50,11.00L117.25,10.25L117.50,9.25L118.50,8.25L128.50,8.25L129.75,7.00L129.50,5.75L128.00,5.00L127.50,5.25L106.25,5.25L106.00,5.00L104.50,5.00ZM71.75,9.75L71.50,10.75L71.75,15.50L72.50,16.75L74.50,18.75L77.00,19.75L78.00,19.50L93.50,19.50L94.50,19.00L95.00,18.25L94.75,17.00L94.00,16.50L77.25,16.50L76.75,16.25L74.75,14.25L74.25,13.00L74.25,12.00L75.00,10.25L77.50,8.25L91.50,8.25L92.50,8.50L94.50,9.50L96.75,11.50L97.50,12.75L98.00,14.25L98.00,18.75L98.75,19.50L99.50,19.75L100.25,19.50L101.25,18.25L101.00,12.50L99.75,9.75L97.25,7.00L95.75,6.00L93.25,5.00L77.25,5.00L74.50,6.25L72.75,8.00ZM151.00,6.25L151.00,13.25L152.25,16.00L153.75,17.75L157.50,19.75L162.25,19.75L163.25,19.50L165.25,18.50L167.50,16.50L170.25,18.75L171.75,19.50L173.25,19.50L173.50,19.75L174.25,19.50L178.50,19.50L181.25,18.00L182.75,16.50L184.00,14.25L184.00,13.00L184.25,12.75L184.25,6.00L183.25,5.00L181.75,5.25L181.00,6.25L181.00,13.00L178.75,15.75L177.25,16.50L172.50,16.25L170.00,14.00L169.50,12.50L169.50,6.25L168.25,5.00L166.75,5.00L165.75,6.25L165.75,12.75L165.00,14.25L163.50,15.75L161.25,16.50L158.25,16.50L156.50,15.75L155.00,14.25L154.25,12.25L154.50,6.75L154.00,5.50L153.50,5.00L152.50,4.75ZM40.50,5.50L40.25,6.25L40.25,8.50L40.50,8.75L40.25,17.75L41.25,19.50L42.25,19.50L43.50,18.00L43.50,16.75L43.25,16.50L43.50,15.50L44.75,14.25L64.00,14.25L64.75,15.00L64.50,17.75L65.00,19.25L66.75,19.50L67.75,18.25L67.75,6.25L66.75,5.00L65.75,5.00L64.75,6.00L64.75,10.50L63.75,11.25L44.25,11.25L43.50,10.50L43.50,7.25L43.75,7.00L43.50,5.75L42.50,4.75L41.25,4.75ZM3.00,6.50L3.25,7.75L3.25,13.50L4.75,16.50L6.50,18.25L9.50,19.75L15.00,19.75L17.75,18.50L19.75,16.75L20.25,16.75L22.50,18.75L25.00,19.75L31.00,19.50L33.25,18.25L35.50,16.00L36.50,14.00L36.75,6.25L35.75,5.00L34.50,5.00L33.75,5.50L33.50,6.00L33.50,12.75L33.25,13.50L31.25,15.75L30.00,16.50L25.50,16.50L24.00,15.75L22.50,14.25L22.00,13.25L22.00,6.50L21.75,5.75L20.25,4.75L18.50,5.50L18.00,6.50L18.25,12.00L17.75,13.75L15.75,15.75L14.25,16.50L10.50,16.50L8.75,15.75L7.00,14.00L6.50,12.75L6.50,6.25L5.50,5.00L4.25,4.75L3.25,5.75Z"/></svg>