<svg xmlns="http://www.w3.org/2000/svg" viewBox="0 0 116 20" aria-hidden="true"><defs><pattern id="metal-nexus-title" patternUnits="userSpaceOnUse" width="116" height="20"><image href="/assets/reference.png" x="-1124" y="-666" width="1672" height="941"/></pattern></defs><path fill="url(#metal-nexus-title)" fill-rule="evenodd" d="M28.50,9.50L28.50,10.25L29.25,11.00L42.50,11.00L43.25,10.25L43.25,9.00L42.50,8.50L29.75,8.50L28.75,9.00ZM46.50,4.75L46.50,5.50L48.75,7.75L51.50,9.50L51.00,10.75L48.75,11.75L46.75,13.75L46.50,14.75L47.25,15.50L49.00,15.25L50.50,13.50L52.25,12.75L54.75,11.00L55.75,11.00L58.25,12.25L61.00,14.25L62.50,15.75L63.75,15.75L64.25,15.25L64.50,14.00L62.75,12.25L60.25,11.00L59.25,10.00L59.25,9.50L59.75,9.00L63.25,7.00L64.25,6.00L64.50,5.00L63.50,4.00L62.25,4.25L61.00,5.75L56.00,8.75L54.75,8.75L53.25,8.00L50.75,6.25L48.50,4.00L47.25,4.00ZM90.00,6.50L90.00,8.00L90.75,9.50L92.50,11.00L105.75,11.00L107.00,12.25L106.75,13.00L105.75,13.50L91.25,13.25L90.00,14.50L90.75,15.75L106.50,15.75L107.75,15.25L109.50,13.00L109.50,11.50L108.75,10.00L107.50,8.75L106.75,8.50L93.50,8.50L92.75,7.75L92.75,6.75L93.25,6.25L108.50,6.25L109.25,5.75L109.25,4.50L108.25,3.75L98.00,3.75L97.75,4.00L93.25,3.75L91.75,4.25L90.50,5.50ZM87.25,4.25L86.75,3.75L85.75,3.75L85.00,4.25L85.00,12.25L84.00,13.50L71.50,13.50L69.75,11.75L69.75,4.50L69.25,4.00L68.00,4.00L67.50,4.50L67.50,13.00L69.25,15.00L70.75,15.75L82.25,15.75L84.00,14.50L84.50,14.50L85.50,15.75L86.25,15.75L87.00,15.00L87.25,14.25ZM24.25,6.50L23.75,8.00L23.75,11.75L24.00,12.50L26.00,15.00L27.50,15.75L43.00,15.75L44.25,15.00L44.25,14.00L43.00,13.25L28.00,13.25L26.50,12.00L26.00,10.25L26.25,8.25L27.25,6.75L28.00,6.25L43.25,6.25L44.00,5.75L44.25,5.00L43.00,3.75L28.50,3.75L26.50,4.25ZM2.50,4.50L2.25,5.25L2.25,12.00L2.50,12.25L2.25,14.75L3.00,15.75L3.75,15.75L4.50,14.75L4.50,7.00L5.00,6.50L5.75,6.50L7.50,8.00L8.25,8.25L17.25,15.25L18.25,15.75L20.00,15.75L21.00,14.75L21.00,4.50L20.25,3.75L19.50,3.75L18.50,4.50L18.50,12.50L18.00,13.00L11.50,8.25L6.50,4.00L4.00,3.75Z"/></svg>